<?xml version="1.0" encoding="utf-8"?>
<!-- Generator: Adobe Illustrator 24.0.1, SVG Export Plug-In . SVG Version: 6.00 Build 0)  -->
<svg version="1.1" id="Layer_1" xmlns="http://www.w3.org/2000/svg" xmlns:xlink="http://www.w3.org/1999/xlink" x="0px" y="0px"
	 viewBox="0 0 450 450" style="enable-background:new 0 0 450 450;" xml:space="preserve">
<style type="text/css">
	.st0{fill:#EE3E36;}
	.st1{fill:#FFFFFF;stroke:#000000;stroke-miterlimit:10;}
	.st2{fill:#FFB000;}
	.st3{fill:#D32F2F;}
	.st4{fill:#D89205;}
	.st5{fill:#EE3E36;stroke:#000000;stroke-miterlimit:10;}
</style>
<title>Artboard 1</title>
<g>
	<g>
		<path class="st0" d="M140.3,305.2c-6.7,0-12.1-3.4-14.4-9.1c-3.9-9.5,1.7-22.6,15.3-35.9c10.7-10.4,25.6-19,44.3-25.5
			c10-18.5,19.1-38.3,25.6-55.2c-14.2-22.1-16.9-49.5-11.9-64.8c3.2-9.9,8.8-13.6,12.9-15c5.7-1.9,11.6-0.5,15.7,3.9
			c6.1,6.6,8.4,19.9,6.9,40.7c-0.6,8.3-3.4,19.4-8.2,33.1c0.2,0.3,0.4,0.5,0.6,0.8c3.2,4,6.7,8.3,10.3,12.8
			c7.7,9.7,16.4,20.6,25.2,30.4c2.6-0.1,5.1-0.1,7.5-0.1c31.1,0,52,6.5,58.8,18.3c2.9,5,3,10.7,0.2,15.6c-3.8,6.6-12,10.5-21.9,10.5
			h0c-2.4,0-4.9-0.2-7.4-0.7c-12.5-2.3-26.2-11.7-43-29.5c-4.3,0.2-8.8,0.6-13.4,1c-9.9,1-29,3.4-48.4,9.5
			c-8.3,15-26.3,45.4-39.6,54.2C150.3,303.5,145.1,305.2,140.3,305.2z M174.5,254c-9.6,4.6-17.5,10-23.7,16
			c-12.1,11.8-12.9,19.2-12.2,20.9c0.2,0.5,1,0.6,1.7,0.6c2.1,0,4.8-1,7.5-2.8C153.8,284.8,163.7,271.8,174.5,254z M275.9,235.1
			c10.4,9.6,19.1,15,26.4,16.3c1.7,0.3,3.3,0.5,4.9,0.5c0,0,0,0,0,0c5.4,0,9-1.9,10-3.6c0.2-0.3,0.4-0.8-0.2-1.8
			C314.7,242.5,303.5,236,275.9,235.1z M220.8,192.2c-4.8,11.8-10.6,24.5-17,37c15.7-3.9,30-5.7,38.2-6.5c1.1-0.1,2.1-0.2,3.2-0.3
			c-6.6-7.7-12.8-15.7-18.6-22.9C224.7,197,222.7,194.6,220.8,192.2z M217.2,112.6c-0.1,0-0.3,0-0.7,0.1c-1.5,0.5-3.1,2.8-4.2,6.2
			c-3.3,10.1-2,27.1,4.9,42.8c2.2-7.4,3.5-13.7,3.8-18.4c1.7-23.1-2.1-29.1-3.3-30.3C217.4,112.6,217.3,112.6,217.2,112.6z"/>
	</g>
	<path class="st1" d="M288.3,0h-146C98.1,0,62.2,36,62.2,80.2v289.1c0,44.2,36,80.2,80.2,80.2h167.5c44.2,0,80.2-36,80.2-80.2V100.9
		L288.3,0z M351.7,369.3c0,23.2-18.8,41.9-41.9,41.9h-17.9l-2.4,4.8l-11.5,3.8l-4,0.9l-0.9,4l-0.4,1.1
		c-3.6,10.9-13.1,17.9-24.1,17.9h-5.4l-7.5-3.5l-9.1,8.5h-8H203l-8.2-12.4l-1.8-3l-4.8,0.5h-1c-6.8,0-13.6-2.8-18.4-7.6l-7.6-7.6
		v-7.5h-18.9c-23.2,0-41.9-18.8-41.9-41.9V80.2c0-23.2,18.8-41.9,41.9-41.9h146l63.4,62.6V369.3z"/>
	<g id="certificate">
		<path class="st2" d="M282.7,361.4l-0.8-2.5l-15.8-9.1l1.7-16.6v-2.5l-1.7-1.7c-0.8-0.8-2.5-1.7-4.2-1.7l-16.6,1.7l-8.3-14.1
			c-0.8-1.7-2.5-2.5-4.2-2.5h-2.5l-13.3,12.5l-15.8-7.5h-0.8c-2.5,0-4.2,1.7-5,4.2l-3.3,15.8l-15.8,3.3l-2.5,0.8l-0.8,1.7
			c-0.8,1.7-0.8,3.3,0,5l6.6,14.9l-10.8,12.5c-2.5,0.8-2.5,2.5-2.5,4.2l0.8,2.5l15.8,9.1l-1.7,16.6v2.5l1.7,1.7
			c0.8,0.8,2.5,1.7,4.2,1.7l16.6-1.7l8.3,14.1l1.7,2.5h5l13.3-12.5l15.8,7.5h0.8c2.5,0,4.2-1.7,5-4.2l3.3-15.8l15.8-3.3l2.5-0.8
			l0.8-1.7c0.8-1.7,0.8-3.3,0-5l-6.6-14.9l10.8-12.5C282.7,364.7,282.7,363.1,282.7,361.4z"/>
		<circle class="st3" cx="224.6" cy="370.5" r="29.1"/>
		<circle class="st4" cx="224.6" cy="370.5" r="29.1"/>
	</g>
	<path class="st5" d="M390,100.9h-75c-14.8,0-26.7-12-26.7-26.7V0"/>
</g>
</svg>
